<svg width="171" height="54" viewBox="0 0 171 54" fill="none" xmlns="http://www.w3.org/2000/svg">
<path d="M65.6132 21.1362L62.1095 10.2855H62.038C62.0618 10.5238 62.0797 10.8456 62.0916 11.2508C62.1155 11.656 62.1333 12.0909 62.1453 12.5557C62.1691 13.0205 62.181 13.4793 62.181 13.9322V21.1362H60.3755V8.37272H63.1642L66.5249 18.6157H66.5785L69.9929 8.37272H72.7815V21.1362H70.8867V13.8249C70.8867 13.4078 70.8926 12.9788 70.9045 12.5378C70.9165 12.085 70.9343 11.6619 70.9582 11.2686C70.982 10.8754 70.9999 10.5536 71.0118 10.3033H70.9403L67.3472 21.1362H65.6132ZM77.6642 11.501V21.1362H75.7157V11.501H77.6642ZM76.7168 7.83644C77.0028 7.83644 77.253 7.91986 77.4676 8.0867C77.6821 8.25355 77.7893 8.5336 77.7893 8.92688C77.7893 9.30823 77.6821 9.58829 77.4676 9.76705C77.253 9.9339 77.0028 10.0173 76.7168 10.0173C76.4069 10.0173 76.1447 9.9339 75.9302 9.76705C75.7157 9.58829 75.6085 9.30823 75.6085 8.92688C75.6085 8.5336 75.7157 8.25355 75.9302 8.0867C76.1447 7.91986 76.4069 7.83644 76.7168 7.83644ZM84.1128 21.315C83.2667 21.315 82.5219 21.1422 81.8783 20.7966C81.2467 20.451 80.7521 19.9147 80.3946 19.1877C80.049 18.4489 79.8762 17.5133 79.8762 16.3812C79.8762 15.1895 80.0669 14.2242 80.4483 13.4853C80.8296 12.7464 81.348 12.2042 82.0035 11.8586C82.6589 11.501 83.4097 11.3223 84.2559 11.3223C84.7564 11.3223 85.2331 11.3819 85.6859 11.501C86.1507 11.6083 86.5321 11.7334 86.83 11.8764L86.2401 13.3959C85.9422 13.2767 85.6204 13.1695 85.2748 13.0741C84.9292 12.9788 84.6015 12.9311 84.2916 12.9311C83.7434 12.9311 83.2905 13.0622 82.933 13.3244C82.5874 13.5747 82.3252 13.956 82.1465 14.4685C81.9677 14.969 81.8783 15.6006 81.8783 16.3633C81.8783 17.0903 81.9677 17.704 82.1465 18.2046C82.3252 18.7051 82.5874 19.0864 82.933 19.3486C83.2905 19.5989 83.7196 19.724 84.2201 19.724C84.7087 19.724 85.1437 19.6644 85.5251 19.5453C85.9183 19.4261 86.2818 19.2712 86.6155 19.0805V20.7251C86.2818 20.9277 85.9183 21.0766 85.5251 21.172C85.1318 21.2673 84.661 21.315 84.1128 21.315ZM93.2979 11.3223C93.4529 11.3223 93.6257 11.3342 93.8163 11.358C94.007 11.3699 94.1679 11.3878 94.299 11.4117L94.1024 13.1814C93.9713 13.1456 93.8223 13.1158 93.6555 13.092C93.4886 13.0682 93.3218 13.0562 93.1549 13.0562C92.8332 13.0562 92.5233 13.1278 92.2254 13.2708C91.9274 13.4019 91.6593 13.5985 91.4209 13.8607C91.1826 14.1109 90.9919 14.4208 90.8489 14.7902C90.7059 15.1597 90.6344 15.5827 90.6344 16.0594V21.1362H88.7038V11.501H90.2232L90.4735 13.2171H90.5808C90.7595 12.8715 90.98 12.5557 91.2422 12.2697C91.5163 11.9837 91.8261 11.7573 92.1717 11.5904C92.5173 11.4117 92.8927 11.3223 93.2979 11.3223ZM103.697 16.3097C103.697 17.1082 103.596 17.8172 103.393 18.4369C103.191 19.0566 102.899 19.581 102.517 20.01C102.148 20.4391 101.695 20.7668 101.159 20.9932C100.623 21.2077 100.021 21.315 99.3533 21.315C98.7455 21.315 98.1795 21.2077 97.6551 20.9932C97.1307 20.7668 96.6779 20.4391 96.2965 20.01C95.9151 19.581 95.6172 19.0566 95.4027 18.4369C95.2001 17.8172 95.0988 17.1022 95.0988 16.2918C95.0988 15.2312 95.2716 14.3314 95.6172 13.5925C95.9628 12.8537 96.4574 12.2935 97.1009 11.9122C97.7564 11.5189 98.531 11.3223 99.4248 11.3223C100.259 11.3223 100.998 11.5189 101.641 11.9122C102.285 12.2935 102.786 12.8537 103.143 13.5925C103.512 14.3314 103.697 15.2371 103.697 16.3097ZM97.1009 16.3097C97.1009 17.0247 97.1784 17.6444 97.3333 18.1688C97.5002 18.6813 97.7504 19.0745 98.0841 19.3486C98.4297 19.6227 98.8647 19.7598 99.3891 19.7598C99.9253 19.7598 100.36 19.6227 100.694 19.3486C101.04 19.0745 101.29 18.6813 101.445 18.1688C101.612 17.6444 101.695 17.0247 101.695 16.3097C101.695 15.5708 101.612 14.9511 101.445 14.4506C101.278 13.9501 101.028 13.5687 100.694 13.3065C100.36 13.0324 99.9194 12.8954 99.3712 12.8954C98.5727 12.8954 97.9947 13.1933 97.6372 13.7892C97.2797 14.385 97.1009 15.2252 97.1009 16.3097ZM112.031 18.4191C112.031 19.0507 111.888 19.581 111.601 20.01C111.315 20.4391 110.898 20.7668 110.35 20.9932C109.802 21.2077 109.129 21.315 108.33 21.315C107.699 21.315 107.144 21.2614 106.668 21.1541C106.203 21.0588 105.774 20.9158 105.381 20.7251V19.0626C105.798 19.2652 106.274 19.4499 106.811 19.6168C107.347 19.7717 107.859 19.8492 108.348 19.8492C108.98 19.8492 109.438 19.7359 109.725 19.5095C110.011 19.2831 110.154 18.9792 110.154 18.5978C110.154 18.3833 110.094 18.1926 109.975 18.0258C109.868 17.847 109.659 17.6683 109.349 17.4895C109.039 17.2988 108.592 17.0843 108.008 16.846C107.436 16.5957 106.954 16.3514 106.56 16.1131C106.179 15.8628 105.881 15.5708 105.667 15.2371C105.464 14.8915 105.363 14.4506 105.363 13.9143C105.363 13.0801 105.685 12.4425 106.328 12.0016C106.972 11.5487 107.812 11.3223 108.849 11.3223C109.421 11.3223 109.951 11.3819 110.44 11.501C110.928 11.6083 111.405 11.7751 111.87 12.0016L111.28 13.4495C111.006 13.3184 110.726 13.2112 110.44 13.1278C110.165 13.0324 109.891 12.955 109.617 12.8954C109.343 12.8358 109.069 12.806 108.795 12.806C108.282 12.806 107.895 12.8954 107.633 13.0741C107.371 13.2529 107.24 13.5032 107.24 13.8249C107.24 14.0633 107.299 14.2659 107.418 14.4327C107.55 14.5995 107.77 14.7664 108.08 14.9332C108.402 15.1001 108.843 15.2967 109.403 15.5231C109.963 15.7496 110.44 15.982 110.833 16.2203C111.226 16.4587 111.524 16.7506 111.727 17.0962C111.929 17.4418 112.031 17.8828 112.031 18.4191ZM122.202 16.3097C122.202 17.1082 122.1 17.8172 121.898 18.4369C121.695 19.0566 121.403 19.581 121.022 20.01C120.652 20.4391 120.2 20.7668 119.663 20.9932C119.127 21.2077 118.525 21.315 117.858 21.315C117.25 21.315 116.684 21.2077 116.16 20.9932C115.635 20.7668 115.182 20.4391 114.801 20.01C114.42 19.581 114.122 19.0566 113.907 18.4369C113.705 17.8172 113.603 17.1022 113.603 16.2918C113.603 15.2312 113.776 14.3314 114.122 13.5925C114.467 12.8537 114.962 12.2935 115.605 11.9122C116.261 11.5189 117.036 11.3223 117.929 11.3223C118.764 11.3223 119.502 11.5189 120.146 11.9122C120.79 12.2935 121.29 12.8537 121.648 13.5925C122.017 14.3314 122.202 15.2371 122.202 16.3097ZM115.605 16.3097C115.605 17.0247 115.683 17.6444 115.838 18.1688C116.005 18.6813 116.255 19.0745 116.589 19.3486C116.934 19.6227 117.369 19.7598 117.894 19.7598C118.43 19.7598 118.865 19.6227 119.199 19.3486C119.544 19.0745 119.794 18.6813 119.949 18.1688C120.116 17.6444 120.2 17.0247 120.2 16.3097C120.2 15.5708 120.116 14.9511 119.949 14.4506C119.782 13.9501 119.532 13.5687 119.199 13.3065C118.865 13.0324 118.424 12.8954 117.876 12.8954C117.077 12.8954 116.499 13.1933 116.142 13.7892C115.784 14.385 115.605 15.2252 115.605 16.3097ZM128.962 12.949H126.763V21.1362H124.815V12.949H123.331V12.0552L124.815 11.4653V10.8575C124.815 10.0352 124.928 9.37974 125.154 8.89113C125.393 8.3906 125.738 8.02712 126.191 7.80069C126.644 7.57426 127.198 7.46104 127.854 7.46104C128.247 7.46104 128.61 7.49679 128.944 7.5683C129.278 7.6398 129.57 7.71726 129.82 7.80069L129.337 9.24865C129.159 9.18906 128.95 9.13543 128.712 9.08776C128.485 9.02818 128.253 8.99838 128.015 8.99838C127.585 8.99838 127.27 9.15331 127.067 9.46316C126.864 9.77301 126.763 10.2437 126.763 10.8754V11.501H128.962V12.949ZM133.91 19.7776C134.161 19.7776 134.405 19.7538 134.643 19.7061C134.882 19.6585 135.09 19.6048 135.269 19.5453V20.9753C135.066 21.0707 134.798 21.1481 134.465 21.2077C134.143 21.2792 133.803 21.315 133.446 21.315C132.945 21.315 132.486 21.2256 132.069 21.0469C131.652 20.8681 131.318 20.5582 131.068 20.1173C130.818 19.6764 130.693 19.0626 130.693 18.2761V12.949H129.459V12.0909L130.782 11.3759L131.444 9.33803H132.641V11.501H135.197V12.949H132.641V18.2403C132.641 18.7647 132.76 19.152 132.999 19.4023C133.237 19.6525 133.541 19.7776 133.91 19.7776ZM149.093 21.1362L147.895 17.4538H143.337L142.139 21.1362H140.066L144.553 8.31909H146.698L151.167 21.1362H149.093ZM146.197 12.1803C146.161 12.0373 146.102 11.8407 146.018 11.5904C145.947 11.3282 145.875 11.0601 145.804 10.786C145.732 10.5 145.667 10.2616 145.607 10.0709C145.56 10.3331 145.5 10.5953 145.428 10.8575C145.357 11.1197 145.291 11.364 145.232 11.5904C145.172 11.8168 145.119 12.0135 145.071 12.1803L143.891 15.7734H147.377L146.197 12.1803ZM155.637 21.315C154.564 21.315 153.694 20.8979 153.027 20.0637C152.372 19.2295 152.044 17.99 152.044 16.3454C152.044 14.6889 152.378 13.4376 153.045 12.5915C153.712 11.7453 154.588 11.3223 155.673 11.3223C156.137 11.3223 156.537 11.3878 156.87 11.5189C157.204 11.6381 157.496 11.8049 157.746 12.0194C157.997 12.2339 158.205 12.4723 158.372 12.7345H158.479C158.455 12.5676 158.426 12.3293 158.39 12.0194C158.366 11.6977 158.354 11.4117 158.354 11.1614V7.55042H160.285V21.1362H158.765L158.426 19.8492H158.354C158.187 20.1233 157.979 20.3735 157.728 20.5999C157.478 20.8145 157.18 20.9873 156.835 21.1184C156.501 21.2494 156.102 21.315 155.637 21.315ZM156.155 19.7598C156.99 19.7598 157.574 19.5035 157.907 18.9911C158.253 18.4667 158.426 17.6861 158.426 16.6493V16.3633C158.426 15.2312 158.265 14.3672 157.943 13.7713C157.621 13.1754 157.019 12.8775 156.137 12.8775C155.446 12.8775 154.922 13.1933 154.564 13.8249C154.207 14.4446 154.028 15.2967 154.028 16.3812C154.028 17.4657 154.207 18.2999 154.564 18.8838C154.922 19.4678 155.452 19.7598 156.155 19.7598ZM169.133 18.4191C169.133 19.0507 168.99 19.581 168.704 20.01C168.418 20.4391 168.001 20.7668 167.452 20.9932C166.904 21.2077 166.231 21.315 165.432 21.315C164.801 21.315 164.247 21.2614 163.77 21.1541C163.305 21.0588 162.876 20.9158 162.483 20.7251V19.0626C162.9 19.2652 163.377 19.4499 163.913 19.6168C164.449 19.7717 164.962 19.8492 165.45 19.8492C166.082 19.8492 166.541 19.7359 166.827 19.5095C167.113 19.2831 167.256 18.9792 167.256 18.5978C167.256 18.3833 167.196 18.1926 167.077 18.0258C166.97 17.847 166.761 17.6683 166.451 17.4895C166.141 17.2988 165.695 17.0843 165.111 16.846C164.539 16.5957 164.056 16.3514 163.663 16.1131C163.281 15.8628 162.983 15.5708 162.769 15.2371C162.566 14.8915 162.465 14.4506 162.465 13.9143C162.465 13.0801 162.787 12.4425 163.43 12.0016C164.074 11.5487 164.914 11.3223 165.951 11.3223C166.523 11.3223 167.053 11.3819 167.542 11.501C168.03 11.6083 168.507 11.7751 168.972 12.0016L168.382 13.4495C168.108 13.3184 167.828 13.2112 167.542 13.1278C167.268 13.0324 166.993 12.955 166.719 12.8954C166.445 12.8358 166.171 12.806 165.897 12.806C165.385 12.806 164.997 12.8954 164.735 13.0741C164.473 13.2529 164.342 13.5032 164.342 13.8249C164.342 14.0633 164.401 14.2659 164.521 14.4327C164.652 14.5995 164.872 14.7664 165.182 14.9332C165.504 15.1001 165.945 15.2967 166.505 15.5231C167.065 15.7496 167.542 15.982 167.935 16.2203C168.328 16.4587 168.626 16.7506 168.829 17.0962C169.031 17.4418 169.133 17.8828 169.133 18.4191Z" fill="white"/>
<path d="M67.1863 45.1362H60.3755V32.3727H67.1863V34.0173H62.3598V37.664H66.9003V39.2908H62.3598V43.4738H67.1863V45.1362ZM71.5921 40.2203L68.5353 35.501H70.734L72.8255 38.969L74.8813 35.501H77.0979L74.0232 40.2203L77.2409 45.1362H75.0421L72.8255 41.4538L70.5731 45.1362H68.3922L71.5921 40.2203ZM83.4883 35.3223C84.5728 35.3223 85.4428 35.7394 86.0982 36.5736C86.7537 37.4078 87.0814 38.6532 87.0814 40.3097C87.0814 41.3942 86.9265 42.3118 86.6166 43.0626C86.3187 43.8134 85.8956 44.3795 85.3474 44.7608C84.7992 45.1303 84.1616 45.315 83.4347 45.315C82.9937 45.315 82.6005 45.2554 82.2549 45.1362C81.9093 45.0051 81.6173 44.8383 81.3789 44.6357C81.1525 44.4212 80.9499 44.1948 80.7711 43.9564H80.6639C80.6877 44.1709 80.7116 44.4271 80.7354 44.7251C80.7592 45.0111 80.7711 45.2673 80.7711 45.4938V49.4265H78.8405V35.501H80.4136L80.6818 36.7881H80.7711C80.9499 36.5259 81.1585 36.2816 81.3968 36.0552C81.6471 35.8288 81.939 35.65 82.2727 35.5189C82.6183 35.3878 83.0235 35.3223 83.4883 35.3223ZM82.9699 36.8775C82.4455 36.8775 82.0225 36.9967 81.7007 37.235C81.3789 37.4614 81.1406 37.807 80.9857 38.2718C80.8426 38.7247 80.7711 39.3027 80.7711 40.0058V40.2918C80.7711 41.0307 80.8367 41.6623 80.9678 42.1867C81.1108 42.6991 81.3432 43.0924 81.6649 43.3665C81.9986 43.6287 82.4455 43.7598 83.0056 43.7598C83.4823 43.7598 83.8756 43.6168 84.1855 43.3307C84.4953 43.0328 84.7218 42.6217 84.8648 42.0973C85.0197 41.5729 85.0971 40.9651 85.0971 40.2739C85.0971 39.2252 84.9184 38.397 84.5609 37.7892C84.2153 37.1814 83.6849 36.8775 82.9699 36.8775ZM92.944 35.3223C93.7425 35.3223 94.4337 35.501 95.0177 35.8586C95.6016 36.2042 96.0485 36.7047 96.3584 37.3601C96.6801 38.0156 96.841 38.7902 96.841 39.684V40.7208H90.781C90.8049 41.71 91.0432 42.4667 91.4961 42.9911C91.9489 43.5155 92.5865 43.7776 93.4088 43.7776C93.9928 43.7776 94.5112 43.724 94.964 43.6168C95.4288 43.4976 95.8996 43.3248 96.3762 43.0984V44.6715C95.9234 44.886 95.4586 45.0469 94.9819 45.1541C94.5171 45.2614 93.9511 45.315 93.2837 45.315C92.4137 45.315 91.6391 45.1303 90.9598 44.7608C90.2805 44.3914 89.7502 43.8432 89.3688 43.1162C88.9875 42.3774 88.7968 41.4716 88.7968 40.3991C88.7968 39.3146 88.9696 38.397 89.3152 37.6462C89.6608 36.8954 90.1435 36.3233 90.7632 35.9301C91.3948 35.5249 92.1217 35.3223 92.944 35.3223ZM92.944 36.7881C92.3363 36.7881 91.8476 37.0086 91.4782 37.4495C91.1088 37.8905 90.8943 38.5161 90.8347 39.3265H94.9283C94.9283 38.826 94.8568 38.385 94.7138 38.0037C94.5708 37.6223 94.3503 37.3244 94.0524 37.1099C93.7663 36.8954 93.3969 36.7881 92.944 36.7881ZM103.598 35.3223C103.753 35.3223 103.925 35.3342 104.116 35.358C104.307 35.3699 104.468 35.3878 104.599 35.4117L104.402 37.1814C104.271 37.1456 104.122 37.1158 103.955 37.092C103.788 37.0682 103.621 37.0562 103.455 37.0562C103.133 37.0562 102.823 37.1278 102.525 37.2708C102.227 37.4019 101.959 37.5985 101.721 37.8607C101.482 38.1109 101.292 38.4208 101.149 38.7902C101.006 39.1597 100.934 39.5827 100.934 40.0594V45.1362H99.0035V35.501H100.523L100.773 37.2171H100.88C101.059 36.8715 101.28 36.5557 101.542 36.2697C101.816 35.9837 102.126 35.7573 102.471 35.5904C102.817 35.4117 103.192 35.3223 103.598 35.3223ZM109.645 43.7776C109.895 43.7776 110.14 43.7538 110.378 43.7061C110.616 43.6585 110.825 43.6048 111.004 43.5453V44.9753C110.801 45.0707 110.533 45.1481 110.199 45.2077C109.877 45.2792 109.538 45.315 109.18 45.315C108.68 45.315 108.221 45.2256 107.804 45.0469C107.387 44.8681 107.053 44.5582 106.803 44.1173C106.552 43.6764 106.427 43.0626 106.427 42.2761V36.949H105.194V36.0909L106.517 35.3759L107.178 33.338H108.376V35.501H110.932V36.949H108.376V42.2403C108.376 42.7647 108.495 43.152 108.733 43.4023C108.972 43.6525 109.276 43.7776 109.645 43.7776Z" fill="white" fill-opacity="0.61"/>
<g clip-path="url(#clip0_5999_10382)">
<path d="M0.257812 0.460449H53.2363V53.439H0.257812V0.460449Z" fill="#F3F3F3"/>
<path d="M2.5625 2.76367H25.5966V25.7978H2.5625V2.76367Z" fill="#F35325"/>
<path d="M27.8984 2.76367H50.9326V25.7978H27.8984V2.76367Z" fill="#81BC06"/>
<path d="M2.5625 28.1016H25.5966V51.1357H2.5625V28.1016Z" fill="#05A6F0"/>
<path d="M27.8984 28.1016H50.9326V51.1357H27.8984V28.1016Z" fill="#FFBA08"/>
</g>
<defs>
<clipPath id="clip0_5999_10382">
<rect width="52.9785" height="52.9785" fill="white" transform="translate(0.257812 0.460449)"/>
</clipPath>
</defs>
</svg>
