<svg width="175" height="52" viewBox="0 0 175 52" fill="none" xmlns="http://www.w3.org/2000/svg">
<path d="M66.3419 32.6362H64.3755V19.8727H71.1863V21.5173H66.3419V25.6824H70.8824V27.327H66.3419V32.6362ZM76.7113 22.8223C77.8434 22.8223 78.6955 23.0904 79.2675 23.6267C79.8515 24.1511 80.1435 24.9793 80.1435 26.1115V32.6362H78.767L78.3916 31.2955H78.3201C78.046 31.6411 77.7719 31.9271 77.4978 32.1536C77.2356 32.38 76.9258 32.5469 76.5683 32.6541C76.2227 32.7614 75.7936 32.815 75.2812 32.815C74.7449 32.815 74.2623 32.7137 73.8332 32.5111C73.4042 32.2966 73.0646 31.9748 72.8143 31.5458C72.564 31.1048 72.4389 30.5566 72.4389 29.9012C72.4389 28.924 72.7845 28.1791 73.4757 27.6667C74.1788 27.1542 75.2454 26.8742 76.6755 26.8265L78.2129 26.7729V26.2366C78.2129 25.5216 78.0639 25.021 77.766 24.735C77.4799 24.449 77.0748 24.306 76.5504 24.306C76.1094 24.306 75.6745 24.3775 75.2454 24.5205C74.8164 24.6635 74.3993 24.8363 73.9941 25.0389L73.4042 23.6624C73.8451 23.4241 74.3457 23.2275 74.9058 23.0725C75.4778 22.9057 76.0797 22.8223 76.7113 22.8223ZM77.0509 28.0421C76.0737 28.0898 75.3944 28.2745 75.013 28.5962C74.6317 28.9061 74.441 29.347 74.441 29.9191C74.441 30.4196 74.5721 30.7831 74.8343 31.0095C75.1084 31.2359 75.4599 31.3492 75.889 31.3492C76.5444 31.3492 77.0926 31.1406 77.5336 30.7235C77.9864 30.3064 78.2129 29.6807 78.2129 28.8465V28.0063L77.0509 28.0421ZM86.5417 32.815C85.6956 32.815 84.9507 32.6422 84.3072 32.2966C83.6756 31.951 83.181 31.4147 82.8235 30.6877C82.4779 29.9489 82.3051 29.0133 82.3051 27.8812C82.3051 26.6895 82.4958 25.7242 82.8771 24.9853C83.2585 24.2464 83.7769 23.7042 84.4323 23.3586C85.0878 23.001 85.8386 22.8223 86.6847 22.8223C87.1852 22.8223 87.6619 22.8819 88.1148 23.001C88.5796 23.1083 88.9609 23.2334 89.2589 23.3764L88.669 24.8959C88.371 24.7767 88.0493 24.6695 87.7037 24.5741C87.3581 24.4788 87.0303 24.4311 86.7205 24.4311C86.1723 24.4311 85.7194 24.5622 85.3619 24.8244C85.0163 25.0747 84.7541 25.456 84.5753 25.9685C84.3966 26.469 84.3072 27.1006 84.3072 27.8633C84.3072 28.5903 84.3966 29.204 84.5753 29.7046C84.7541 30.2051 85.0163 30.5864 85.3619 30.8486C85.7194 31.0989 86.1484 31.224 86.649 31.224C87.1376 31.224 87.5726 31.1644 87.9539 31.0453C88.3472 30.9261 88.7107 30.7712 89.0444 30.5805V32.2251C88.7107 32.4277 88.3472 32.5766 87.9539 32.672C87.5606 32.7673 87.0899 32.815 86.5417 32.815ZM94.7794 22.8223C95.5778 22.8223 96.269 23.001 96.853 23.3586C97.4369 23.7042 97.8838 24.2047 98.1937 24.8601C98.5155 25.5156 98.6763 26.2902 98.6763 27.184V28.2208H92.6164C92.6402 29.21 92.8785 29.9667 93.3314 30.4911C93.7843 31.0155 94.4218 31.2776 95.2441 31.2776C95.8281 31.2776 96.3465 31.224 96.7994 31.1168C97.2641 30.9976 97.7349 30.8248 98.2116 30.5984V32.1715C97.7587 32.386 97.2939 32.5469 96.8172 32.6541C96.3525 32.7614 95.7864 32.815 95.119 32.815C94.249 32.815 93.4744 32.6303 92.7951 32.2608C92.1158 31.8914 91.5855 31.3432 91.2042 30.6162C90.8228 29.8774 90.6321 28.9716 90.6321 27.8991C90.6321 26.8146 90.8049 25.897 91.1505 25.1462C91.4961 24.3954 91.9788 23.8233 92.5985 23.4301C93.2301 23.0249 93.9571 22.8223 94.7794 22.8223ZM94.7794 24.2881C94.1716 24.2881 93.683 24.5086 93.3135 24.9495C92.9441 25.3905 92.7296 26.0161 92.67 26.8265H96.7636C96.7636 26.326 96.6921 25.885 96.5491 25.5037C96.4061 25.1223 96.1856 24.8244 95.8877 24.6099C95.6017 24.3954 95.2322 24.2881 94.7794 24.2881ZM102.769 22.3217C102.769 22.715 102.757 23.0904 102.734 23.4479C102.722 23.7935 102.704 24.0676 102.68 24.2702H102.769C103.02 23.865 103.359 23.5254 103.788 23.2513C104.229 22.9772 104.789 22.8401 105.469 22.8401C106.553 22.8401 107.423 23.2573 108.079 24.0915C108.746 24.9257 109.08 26.1651 109.08 27.8097C109.08 28.918 108.931 29.8416 108.633 30.5805C108.335 31.3194 107.912 31.8795 107.364 32.2608C106.815 32.6303 106.178 32.815 105.451 32.815C104.76 32.815 104.199 32.6839 103.77 32.4217C103.353 32.1476 103.02 31.8258 102.769 31.4564H102.626L102.287 32.6362H100.839V19.0504H102.769V22.3217ZM104.968 24.3775C104.432 24.3775 104.003 24.4967 103.681 24.735C103.359 24.9734 103.127 25.3368 102.984 25.8254C102.841 26.3141 102.769 26.9338 102.769 27.6846V27.8276C102.769 28.9359 102.924 29.788 103.234 30.3838C103.556 30.9678 104.152 31.2598 105.022 31.2598C105.701 31.2598 106.214 30.9618 106.559 30.366C106.917 29.7701 107.095 28.9121 107.095 27.7918C107.095 26.6597 106.917 25.8076 106.559 25.2355C106.214 24.6635 105.683 24.3775 104.968 24.3775ZM119.393 27.8097C119.393 28.6082 119.292 29.3172 119.09 29.9369C118.887 30.5566 118.595 31.081 118.214 31.51C117.844 31.9391 117.391 32.2668 116.855 32.4932C116.319 32.7077 115.717 32.815 115.05 32.815C114.442 32.815 113.876 32.7077 113.351 32.4932C112.827 32.2668 112.374 31.9391 111.993 31.51C111.611 31.081 111.313 30.5566 111.099 29.9369C110.896 29.3172 110.795 28.6022 110.795 27.7918C110.795 26.7312 110.968 25.8314 111.313 25.0925C111.659 24.3537 112.154 23.7935 112.797 23.4122C113.453 23.0189 114.227 22.8223 115.121 22.8223C115.955 22.8223 116.694 23.0189 117.338 23.4122C117.981 23.7935 118.482 24.3537 118.839 25.0925C119.209 25.8314 119.393 26.7371 119.393 27.8097ZM112.797 27.8097C112.797 28.5247 112.875 29.1444 113.03 29.6688C113.196 30.1813 113.447 30.5745 113.78 30.8486C114.126 31.1227 114.561 31.2598 115.085 31.2598C115.622 31.2598 116.057 31.1227 116.39 30.8486C116.736 30.5745 116.986 30.1813 117.141 29.6688C117.308 29.1444 117.391 28.5247 117.391 27.8097C117.391 27.0708 117.308 26.4511 117.141 25.9506C116.974 25.4501 116.724 25.0687 116.39 24.8065C116.057 24.5324 115.616 24.3954 115.067 24.3954C114.269 24.3954 113.691 24.6933 113.333 25.2892C112.976 25.885 112.797 26.7252 112.797 27.8097ZM129.693 27.8097C129.693 28.6082 129.592 29.3172 129.389 29.9369C129.187 30.5566 128.895 31.081 128.513 31.51C128.144 31.9391 127.691 32.2668 127.155 32.4932C126.618 32.7077 126.017 32.815 125.349 32.815C124.741 32.815 124.175 32.7077 123.651 32.4932C123.127 32.2668 122.674 31.9391 122.292 31.51C121.911 31.081 121.613 30.5566 121.399 29.9369C121.196 29.3172 121.095 28.6022 121.095 27.7918C121.095 26.7312 121.268 25.8314 121.613 25.0925C121.959 24.3537 122.453 23.7935 123.097 23.4122C123.752 23.0189 124.527 22.8223 125.421 22.8223C126.255 22.8223 126.994 23.0189 127.637 23.4122C128.281 23.7935 128.781 24.3537 129.139 25.0925C129.508 25.8314 129.693 26.7371 129.693 27.8097ZM123.097 27.8097C123.097 28.5247 123.174 29.1444 123.329 29.6688C123.496 30.1813 123.746 30.5745 124.08 30.8486C124.426 31.1227 124.861 31.2598 125.385 31.2598C125.921 31.2598 126.356 31.1227 126.69 30.8486C127.036 30.5745 127.286 30.1813 127.441 29.6688C127.608 29.1444 127.691 28.5247 127.691 27.8097C127.691 27.0708 127.608 26.4511 127.441 25.9506C127.274 25.4501 127.024 25.0687 126.69 24.8065C126.356 24.5324 125.915 24.3954 125.367 24.3954C124.569 24.3954 123.991 24.6933 123.633 25.2892C123.276 25.885 123.097 26.7252 123.097 27.8097ZM133.826 25.8433C133.826 26.0936 133.814 26.3796 133.79 26.7014C133.766 27.0231 133.742 27.3211 133.718 27.5952H133.79C133.861 27.476 133.957 27.333 134.076 27.1662C134.207 26.9874 134.338 26.8086 134.469 26.6299C134.612 26.4511 134.743 26.2962 134.862 26.1651L137.562 23.001H139.778L136.185 27.1304L140.011 32.6362H137.723L134.862 28.3281L133.826 29.2577V32.6362H131.895V19.0504H133.826V25.8433ZM153.495 32.6362L152.297 28.9538H147.738L146.541 32.6362H144.467L148.954 19.8191H151.099L155.568 32.6362H153.495ZM150.599 23.6803C150.563 23.5373 150.503 23.3407 150.42 23.0904C150.348 22.8282 150.277 22.5601 150.205 22.286C150.134 22 150.068 21.7616 150.009 21.5709C149.961 21.8331 149.901 22.0953 149.83 22.3575C149.758 22.6197 149.693 22.864 149.633 23.0904C149.574 23.3168 149.52 23.5135 149.472 23.6803L148.293 27.2734H151.778L150.599 23.6803ZM160.038 32.815C158.966 32.815 158.096 32.3979 157.429 31.5637C156.773 30.7295 156.445 29.49 156.445 27.8454C156.445 26.1889 156.779 24.9376 157.446 24.0915C158.114 23.2453 158.99 22.8223 160.074 22.8223C160.539 22.8223 160.938 22.8878 161.272 23.0189C161.606 23.1381 161.898 23.3049 162.148 23.5194C162.398 23.7339 162.607 23.9723 162.773 24.2345H162.881C162.857 24.0676 162.827 23.8293 162.791 23.5194C162.768 23.1977 162.756 22.9117 162.756 22.6614V19.0504H164.686V32.6362H163.167L162.827 31.3492H162.756C162.589 31.6233 162.38 31.8735 162.13 32.0999C161.88 32.3145 161.582 32.4873 161.236 32.6184C160.902 32.7494 160.503 32.815 160.038 32.815ZM160.557 31.2598C161.391 31.2598 161.975 31.0035 162.309 30.4911C162.654 29.9667 162.827 29.1861 162.827 28.1493V27.8633C162.827 26.7312 162.666 25.8672 162.344 25.2713C162.023 24.6754 161.421 24.3775 160.539 24.3775C159.848 24.3775 159.323 24.6933 158.966 25.3249C158.608 25.9446 158.43 26.7967 158.43 27.8812C158.43 28.9657 158.608 29.7999 158.966 30.3838C159.323 30.9678 159.854 31.2598 160.557 31.2598ZM173.534 29.9191C173.534 30.5507 173.391 31.081 173.105 31.51C172.819 31.9391 172.402 32.2668 171.854 32.4932C171.306 32.7077 170.632 32.815 169.834 32.815C169.202 32.815 168.648 32.7614 168.171 32.6541C167.707 32.5588 167.278 32.4158 166.884 32.2251V30.5626C167.301 30.7652 167.778 30.9499 168.314 31.1168C168.851 31.2717 169.363 31.3492 169.852 31.3492C170.483 31.3492 170.942 31.2359 171.228 31.0095C171.514 30.7831 171.657 30.4792 171.657 30.0978C171.657 29.8833 171.598 29.6926 171.478 29.5258C171.371 29.347 171.163 29.1683 170.853 28.9895C170.543 28.7988 170.096 28.5843 169.512 28.346C168.94 28.0957 168.457 27.8514 168.064 27.6131C167.683 27.3628 167.385 27.0708 167.17 26.7371C166.968 26.3915 166.866 25.9506 166.866 25.4143C166.866 24.5801 167.188 23.9425 167.832 23.5016C168.475 23.0487 169.315 22.8223 170.352 22.8223C170.924 22.8223 171.455 22.8819 171.943 23.001C172.432 23.1083 172.909 23.2751 173.373 23.5016L172.783 24.9495C172.509 24.8184 172.229 24.7112 171.943 24.6278C171.669 24.5324 171.395 24.455 171.121 24.3954C170.847 24.3358 170.573 24.306 170.299 24.306C169.786 24.306 169.399 24.3954 169.137 24.5741C168.874 24.7529 168.743 25.0032 168.743 25.3249C168.743 25.5633 168.803 25.7659 168.922 25.9327C169.053 26.0995 169.274 26.2664 169.584 26.4332C169.905 26.6001 170.346 26.7967 170.906 27.0231C171.467 27.2496 171.943 27.482 172.336 27.7203C172.73 27.9587 173.028 28.2506 173.23 28.5962C173.433 28.9418 173.534 29.3828 173.534 29.9191Z" fill="white"/>
<g clip-path="url(#clip0_5999_10390)">
<path d="M22.1128 51.3812C10.0003 49.2137 0.820312 38.7587 0.820312 26.1362C0.820312 12.1112 12.2953 0.63623 26.3203 0.63623C40.3453 0.63623 51.8203 12.1112 51.8203 26.1362C51.8203 38.7587 42.6403 49.2137 30.5278 51.3812L29.1253 50.2337H23.5153L22.1128 51.3812Z" fill="white"/>
<path d="M36.2672 33.2761L37.4147 26.1361H30.6572V21.1636C30.6572 19.1236 31.4222 17.5936 34.4822 17.5936H37.7972V11.0911C36.0122 10.8361 33.9722 10.5811 32.1872 10.5811C26.3222 10.5811 22.2422 14.1511 22.2422 20.5261V26.1361H15.8672V33.2761H22.2422V51.2536C23.6447 51.5086 25.0472 51.6361 26.4497 51.6361C27.8522 51.6361 29.2547 51.5086 30.6572 51.2536V33.2761H36.2672Z" fill="#BFC0C4"/>
</g>
<defs>
<clipPath id="clip0_5999_10390">
<rect width="51" height="51" fill="white" transform="translate(0.820312 0.63623)"/>
</clipPath>
</defs>
</svg>
