<svg width="139" height="66" viewBox="0 0 139 66" fill="none" xmlns="http://www.w3.org/2000/svg">
<path d="M24.0045 30.4059C27.1038 30.4059 29.3559 31.0525 30.7606 32.3458C32.1876 33.639 32.9011 35.4228 32.9011 37.6971C32.9011 38.7227 32.745 39.7038 32.4329 40.6403C32.1207 41.5545 31.5967 42.3795 30.8609 43.1153C30.1251 43.8511 29.1552 44.4308 27.9511 44.8545C26.7694 45.2781 25.2978 45.4899 23.5363 45.4899H21.1617V54.2861H16.8806V30.4059H24.0045ZM23.737 33.9512H21.1617V41.9447H23.1015C24.261 41.9447 25.242 41.8109 26.0447 41.5433C26.8697 41.2535 27.494 40.8075 27.9177 40.2055C28.3413 39.6035 28.5532 38.8231 28.5532 37.8643C28.5532 36.5488 28.163 35.5677 27.3826 34.9211C26.6022 34.2745 25.387 33.9512 23.737 33.9512ZM44.4111 35.8241C46.7523 35.8241 48.5249 36.337 49.729 37.3626C50.9553 38.366 51.5685 39.9491 51.5685 42.1119V54.2861H48.5918L47.7557 51.7777H47.6219C47.1091 52.4243 46.5739 52.9706 46.0165 53.4165C45.4814 53.8402 44.8571 54.1412 44.1435 54.3196C43.4523 54.5203 42.605 54.6206 41.6017 54.6206C40.5314 54.6206 39.5615 54.4199 38.6919 54.0186C37.8446 53.6172 37.1757 53.004 36.6852 52.1791C36.1946 51.3318 35.9494 50.2727 35.9494 49.0017C35.9494 47.1288 36.6294 45.724 37.9895 44.7876C39.372 43.8288 41.4567 43.3048 44.2439 43.2156L47.3878 43.1153V42.2122C47.3878 41.0528 47.1091 40.2278 46.5516 39.7373C45.9942 39.2467 45.2138 39.0015 44.2104 39.0015C43.2963 39.0015 42.4155 39.1352 41.5682 39.4028C40.7209 39.6704 39.8959 39.9825 39.0933 40.3393L37.7554 37.3961C38.6473 36.9278 39.6618 36.5488 40.799 36.2589C41.9584 35.969 43.1625 35.8241 44.4111 35.8241ZM45.1804 45.7909C43.3297 45.8578 42.0476 46.1811 41.3341 46.7609C40.6206 47.3183 40.2638 48.0764 40.2638 49.0352C40.2638 49.8825 40.5203 50.4956 41.0331 50.8747C41.5459 51.2537 42.2037 51.4433 43.0064 51.4433C44.2327 51.4433 45.2696 51.0976 46.1168 50.4064C46.9641 49.6929 47.3878 48.645 47.3878 47.2625V45.724L45.1804 45.7909ZM66.3478 35.8241C66.6154 35.8241 66.9275 35.8353 67.2843 35.8576C67.6411 35.8799 67.9421 35.9245 68.1873 35.9913L67.8194 39.9045C67.6188 39.8599 67.3512 39.8265 67.0167 39.8042C66.7046 39.7596 66.4259 39.7373 66.1806 39.7373C65.5117 39.7373 64.8651 39.8487 64.2407 40.0717C63.6387 40.2724 63.0924 40.5846 62.6019 41.0082C62.1337 41.4095 61.7546 41.9335 61.4648 42.5801C61.1972 43.2268 61.0634 43.996 61.0634 44.8879V54.2861H56.8492V36.1586H60.0935L60.6955 39.3025H60.8962C61.2529 38.6559 61.6989 38.0761 62.234 37.5633C62.7691 37.0282 63.3823 36.6045 64.0735 36.2924C64.787 35.9802 65.5451 35.8241 66.3478 35.8241ZM78.5706 51.2426C79.1058 51.2426 79.6186 51.198 80.1091 51.1088C80.5997 50.9973 81.0568 50.8747 81.4804 50.7409V53.8848C81.0345 54.0855 80.4548 54.2527 79.7412 54.3865C79.0277 54.5425 78.2808 54.6206 77.5004 54.6206C76.4747 54.6206 75.5382 54.4534 74.6909 54.1189C73.866 53.7622 73.197 53.1601 72.6842 52.3128C72.1937 51.4655 71.9484 50.2838 71.9484 48.7676V39.3359H69.5069V37.4964L72.1825 36.0248L73.5204 32.1785H76.1626V36.1586H81.3132V39.3359H76.1626V48.7341C76.1626 49.5814 76.3855 50.2169 76.8315 50.6406C77.2774 51.0419 77.8571 51.2426 78.5706 51.2426ZM94.8336 35.8241C96.8626 35.8241 98.4457 36.3481 99.5829 37.3961C100.742 38.444 101.322 40.1386 101.322 42.4798V54.2861H97.1079V43.3159C97.1079 41.9558 96.8404 40.9413 96.3052 40.2724C95.7701 39.5812 94.9228 39.2356 93.7633 39.2356C92.0688 39.2356 90.9093 39.7707 90.285 40.841C89.6607 41.8889 89.3485 43.4163 89.3485 45.423V54.2861H85.1344V36.1586H88.3786L88.9806 38.5332H89.2147C89.6161 37.9089 90.1066 37.3961 90.6863 36.9947C91.2661 36.5934 91.9127 36.3035 92.6262 36.1251C93.3397 35.9245 94.0755 35.8241 94.8336 35.8241ZM113.884 35.8241C115.512 35.8241 116.906 36.1586 118.065 36.8275C119.247 37.4741 120.161 38.4106 120.808 39.6369C121.454 40.841 121.778 42.3126 121.778 44.0518V46.1923H109.804C109.849 47.8423 110.306 49.1243 111.175 50.0385C112.045 50.9304 113.249 51.3764 114.787 51.3764C115.969 51.3764 117.017 51.2649 117.931 51.0419C118.868 50.7966 119.827 50.451 120.808 50.0051V53.3831C119.916 53.8067 118.99 54.1189 118.032 54.3196C117.073 54.5203 115.925 54.6206 114.587 54.6206C112.825 54.6206 111.253 54.2861 109.871 53.6172C108.511 52.926 107.44 51.8892 106.66 50.5068C105.902 49.1243 105.523 47.4075 105.523 45.3561C105.523 43.2825 105.869 41.5433 106.56 40.1386C107.273 38.7116 108.254 37.6413 109.503 36.9278C110.752 36.192 112.212 35.8241 113.884 35.8241ZM113.884 38.9346C112.769 38.9346 111.855 39.3025 111.142 40.0383C110.451 40.7518 110.038 41.822 109.904 43.2491H117.697C117.697 42.4018 117.552 41.6548 117.262 41.0082C116.995 40.3616 116.582 39.8599 116.025 39.5031C115.467 39.1241 114.754 38.9346 113.884 38.9346ZM135.525 35.8241C135.793 35.8241 136.105 35.8353 136.462 35.8576C136.819 35.8799 137.12 35.9245 137.365 35.9913L136.997 39.9045C136.796 39.8599 136.529 39.8265 136.194 39.8042C135.882 39.7596 135.604 39.7373 135.358 39.7373C134.689 39.7373 134.043 39.8487 133.418 40.0717C132.816 40.2724 132.27 40.5846 131.78 41.0082C131.311 41.4095 130.932 41.9335 130.642 42.5801C130.375 43.2268 130.241 43.996 130.241 44.8879V54.2861H126.027V36.1586H129.271L129.873 39.3025H130.074C130.431 38.6559 130.877 38.0761 131.412 37.5633C131.947 37.0282 132.56 36.6045 133.251 36.2924C133.965 35.9802 134.723 35.8241 135.525 35.8241Z" fill="white"/>
<path d="M27.1833 20.1168C24.5029 20.1256 21.9269 19.0812 20.0136 17.2098C18.1002 15.3384 17.0034 12.7908 16.9609 10.1189C17.0034 7.44697 18.1002 4.89934 20.0136 3.02796C21.9269 1.15657 24.5029 0.112145 27.1833 0.120955C28.4605 0.0997509 29.7291 0.332942 30.9147 0.806859C32.1003 1.28078 33.1791 1.98589 34.0879 2.88085L32.1382 4.80312C30.8089 3.52699 29.0285 2.82474 27.1833 2.84864C26.2278 2.84572 25.2813 3.03226 24.3989 3.39739C23.5164 3.76252 22.7156 4.29897 22.043 4.97551C21.3704 5.65205 20.8395 6.45518 20.4811 7.33817C20.1227 8.22117 19.944 9.1664 19.9555 10.1189C19.944 11.0713 20.1227 12.0166 20.4811 12.8996C20.8395 13.7826 21.3704 14.5857 22.043 15.2622C22.7156 15.9388 23.5164 16.4752 24.3989 16.8404C25.2813 17.2055 26.2278 17.392 27.1833 17.3891C28.1245 17.4276 29.0633 17.2688 29.9391 16.9229C30.8149 16.577 31.6081 16.0517 32.2675 15.3809C33.1464 14.4358 33.6747 13.2195 33.7648 11.9337H27.1833V9.21681H36.4469C36.5479 9.78023 36.5948 10.352 36.5869 10.9243C36.6599 13.281 35.8011 15.5719 34.1956 17.3032C33.2921 18.2389 32.2001 18.9734 30.9915 19.4584C29.7829 19.9433 28.4851 20.1677 27.1833 20.1168Z" fill="white"/>
<path d="M50.9164 13.6782C50.9517 14.5372 50.8126 15.3944 50.5072 16.1985C50.2019 17.0025 49.7367 17.7367 49.1396 18.3569C48.5424 18.9772 47.8257 19.4707 47.0324 19.8078C46.2392 20.145 45.3857 20.3188 44.5234 20.3188C43.661 20.3188 42.8076 20.145 42.0143 19.8078C41.221 19.4707 40.5043 18.9772 39.9072 18.3569C39.31 17.7367 38.8448 17.0025 38.5395 16.1985C38.2342 15.3944 38.095 14.5372 38.1304 13.6782C38.095 12.8192 38.2342 11.9619 38.5395 11.1579C38.8448 10.3539 39.31 9.61968 39.9072 8.99942C40.5043 8.37916 41.221 7.88565 42.0143 7.54851C42.8076 7.21138 43.661 7.0376 44.5234 7.0376C45.3857 7.0376 46.2392 7.21138 47.0324 7.54851C47.8257 7.88565 48.5424 8.37916 49.1396 8.99942C49.7367 9.61968 50.2019 10.3539 50.5072 11.1579C50.8126 11.9619 50.9517 12.8192 50.9164 13.6782V13.6782ZM48.1157 13.6782C48.1632 13.1793 48.1057 12.6761 47.9468 12.2007C47.7878 11.7253 47.5311 11.2882 47.1929 10.9175C46.8546 10.5468 46.4425 10.2506 45.9828 10.0479C45.5231 9.84528 45.026 9.74059 44.5234 9.74059C44.0207 9.74059 43.5236 9.84528 43.064 10.0479C42.6043 10.2506 42.1921 10.5468 41.8539 10.9175C41.5157 11.2882 41.2589 11.7253 41.1 12.2007C40.9411 12.6761 40.8835 13.1793 40.931 13.6782C40.8835 14.177 40.9411 14.6803 41.1 15.1557C41.2589 15.6311 41.5157 16.0682 41.8539 16.4389C42.1921 16.8096 42.6043 17.1057 43.064 17.3084C43.5236 17.5111 44.0207 17.6158 44.5234 17.6158C45.026 17.6158 45.5231 17.5111 45.9828 17.3084C46.4425 17.1057 46.8546 16.8096 47.1929 16.4389C47.5311 16.0682 47.7878 15.6311 47.9468 15.1557C48.1057 14.6803 48.1632 14.177 48.1157 13.6782V13.6782Z" fill="white"/>
<path d="M65.2523 13.6782C65.2877 14.5372 65.1485 15.3944 64.8432 16.1985C64.5379 17.0025 64.0726 17.7367 63.4755 18.3569C62.8784 18.9772 62.1617 19.4707 61.3684 19.8078C60.5751 20.145 59.7217 20.3188 58.8593 20.3188C57.997 20.3188 57.1435 20.145 56.3503 19.8078C55.557 19.4707 54.8402 18.9772 54.2431 18.3569C53.646 17.7367 53.1808 17.0025 52.8754 16.1985C52.5701 15.3944 52.4309 14.5372 52.4663 13.6782C52.4309 12.8192 52.5701 11.9619 52.8754 11.1579C53.1808 10.3539 53.646 9.61968 54.2431 8.99942C54.8402 8.37916 55.557 7.88565 56.3503 7.54851C57.1435 7.21138 57.997 7.0376 58.8593 7.0376C59.7217 7.0376 60.5751 7.21138 61.3684 7.54851C62.1617 7.88565 62.8784 8.37916 63.4755 8.99942C64.0726 9.61968 64.5379 10.3539 64.8432 11.1579C65.1485 11.9619 65.2877 12.8192 65.2523 13.6782V13.6782ZM62.4517 13.6782C62.4901 13.1838 62.4255 12.6869 62.2622 12.2186C62.0988 11.7502 61.84 11.3206 61.5022 10.9568C61.1644 10.5929 60.7547 10.3025 60.299 10.104C59.8433 9.90539 59.3513 9.80289 58.8539 9.80289C58.3566 9.80289 57.8646 9.90539 57.4089 10.104C56.9531 10.3025 56.5435 10.5929 56.2057 10.9568C55.8678 11.3206 55.6091 11.7502 55.4457 12.2186C55.2823 12.6869 55.2178 13.1838 55.2562 13.6782C55.2178 14.1725 55.2823 14.6695 55.4457 15.1378C55.6091 15.6061 55.8678 16.0357 56.2057 16.3996C56.5435 16.7635 56.9531 17.0538 57.4089 17.2524C57.8646 17.451 58.3566 17.5535 58.8539 17.5535C59.3513 17.5535 59.8433 17.451 60.299 17.2524C60.7547 17.0538 61.1644 16.7635 61.5022 16.3996C61.84 16.0357 62.0988 15.6061 62.2622 15.1378C62.4255 14.6695 62.4901 14.1725 62.4517 13.6782V13.6782Z" fill="white"/>
<path d="M79.2262 7.6403V19.1954C79.2262 23.942 76.3932 25.8964 73.054 25.8964C71.8251 25.9032 70.622 25.5453 69.5977 24.8683C68.5734 24.1914 67.7743 23.2259 67.302 22.0949L69.7902 21.021C70.041 21.6794 70.4817 22.249 71.0568 22.658C71.6319 23.067 72.3156 23.2971 73.0217 23.3191C75.1761 23.3191 76.4902 21.9982 76.4902 19.539V18.6155H76.4256C75.9947 19.1002 75.4632 19.4857 74.868 19.7453C74.2728 20.0049 73.6281 20.1324 72.9786 20.1189C71.2645 20.1189 69.6206 19.4401 68.4086 18.2317C67.1965 17.0233 66.5156 15.3844 66.5156 13.6756C66.5156 11.9667 67.1965 10.3278 68.4086 9.11943C69.6206 7.91107 71.2645 7.23222 72.9786 7.23222C73.6259 7.22029 74.2683 7.34633 74.8627 7.60191C75.4572 7.85749 75.99 8.23671 76.4256 8.71419H76.5225V7.6403H79.2262ZM76.7164 13.7185C76.756 13.2316 76.6968 12.7418 76.5426 12.2782C76.3883 11.8146 76.142 11.3866 75.8183 11.0199C75.4947 10.6531 75.1003 10.3551 74.6587 10.1435C74.2171 9.93184 73.7373 9.81098 73.2479 9.78808C72.7508 9.80592 72.2622 9.92223 71.8106 10.1302C71.3591 10.3382 70.9535 10.6337 70.6177 10.9996C70.2818 11.3654 70.0223 11.7942 69.8544 12.261C69.6864 12.7278 69.6134 13.2233 69.6394 13.7185C69.6163 14.2104 69.6918 14.7019 69.8615 15.1644C70.0311 15.6269 70.2916 16.051 70.6275 16.4119C70.9635 16.7729 71.3683 17.0634 71.8182 17.2666C72.2681 17.4698 72.7542 17.5815 73.2479 17.5953C73.7354 17.578 74.2143 17.4624 74.6557 17.2554C75.0971 17.0484 75.4918 16.7543 75.816 16.391C76.1402 16.0276 76.3872 15.6025 76.5419 15.1413C76.6967 14.6802 76.756 14.1925 76.7164 13.7078V13.7185Z" fill="white"/>
<path d="M84.2109 0.804199V19.7261H81.3672V0.804199H84.2109Z" fill="white"/>
<path d="M95.4086 15.8024L97.6276 17.3058C97.0351 18.1873 96.2336 18.9092 95.294 19.4075C94.3544 19.9058 93.306 20.1651 92.2417 20.1624C91.3951 20.1745 90.5549 20.0152 89.7719 19.6941C88.9888 19.3731 88.2793 18.8969 87.6861 18.2946C87.093 17.6922 86.6286 16.9761 86.3212 16.1897C86.0137 15.4032 85.8694 14.5627 85.8972 13.719C85.7711 12.2687 86.1848 10.8228 87.0593 9.65696C87.9339 8.49113 89.2081 7.6869 90.6392 7.39756C92.0703 7.10823 93.5582 7.35403 94.8192 8.08811C96.0802 8.82219 97.0262 9.99322 97.4768 11.378L97.7676 12.119L89.1503 15.6735C89.4188 16.2752 89.8619 16.783 90.4225 17.1314C90.9831 17.4797 91.6355 17.6527 92.2956 17.628C92.9276 17.6137 93.5454 17.4385 94.0903 17.1189C94.6352 16.7994 95.089 16.3462 95.4086 15.8024V15.8024ZM88.6117 13.4828L94.4068 11.0988C94.1749 10.6711 93.8235 10.3197 93.3952 10.0871C92.9669 9.85457 92.4802 9.75088 91.994 9.78861C91.5284 9.80929 91.0716 9.9213 90.6495 10.1182C90.2274 10.3152 89.8484 10.5932 89.5343 10.9363C89.2201 11.2794 88.9769 11.681 88.8186 12.1179C88.6603 12.5549 88.59 13.0187 88.6117 13.4828V13.4828Z" fill="white"/>
<rect x="0.945312" y="0.119629" width="6.8655" height="54.924" fill="#E6E6E6"/>
<rect x="0.945312" y="0.119629" width="6.8655" height="35.4718" fill="white"/>
</svg>
